:SAMPLES-PER-SECOND 30
:FULLY-SPECIFIED
:DEGREES
47
root  -71.0875 41.3074 -4.12682 30.5205 86.9095 27.6949
RightUpLeg  -1.57166 -11.058 -6.54092
RightLeg  10.729 -0.702169 2.65465
RightFoot  -9.66967 -0.0797008 1.04077
RightToes  0.000482159 0.542163 -0.142577
Spine  9.15609 1.24651 -0.998021
Spine1  -1.50309 1.16961 0.549947
HEad  -8.89076 -0.876827 1.305
LeftShoulder1  1.56951 -3.02069 -17.3128
LeftArm  -22.9966 19.6289 -16.9592
LeftForeArm  22.2239 -7.51938 0.378556
LeftHand  -0.25398 0.0180481 5.50724
RightShoulder  1.24703 1.83284 16.7043
RightArm  -24.7307 -13.8539 10.6629
RightForeArm  -0.284163 8.45765 2.10465
RightHand  -1.37719 3.33147 -18.4871
LeftUpLeg  -2.05924 4.11817 -0.70283
LeftLeg  7.37618 9.35154 -2.26736
LeftFoot  -8.14792 0.0328008 0.566262
LeftToes  1.06245e-005 4.65855e-005 -8.18503e-006
48
root  -71.0217 41.14 -4.20367 22.0482 85.6238 20.134
RightUpLeg  -3.26296 -12.486 -6.24803
RightLeg  15.5867 2.09254 1.24974
RightFoot  -11.112 -0.07943 2.27571
RightToes  0.000482159 0.542163 -0.142577
Spine  10.3509 1.77812 -0.919099
Spine1  -0.946576 1.7668 0.0593898
HEad  -9.92357 -0.631421 1.32507
LeftShoulder1  1.65177 -3.08438 -18.4064
LeftArm  -24.2054 19.5011 -17.8722
LeftForeArm  21.645 -8.87508 0.454257
LeftHand  -0.25398 0.0180481 5.50724
RightShoulder  1.33684 2.08779 17.2886
RightArm  -24.8489 -14.1044 11.5861
RightForeArm  -1.01175 9.22315 2.31487
RightHand  -1.49556 3.78781 -19.0809
LeftUpLeg  -1.68683 5.36194 -0.733637
LeftLeg  9.51653 9.35013 -1.8534
LeftFoot  -10.4973 0.0653122 -0.417828
LeftToes  1.06245e-005 4.65855e-005 -8.18503e-006
49
root  -70.9395 40.9723 -4.27161 15.075 83.7301 14.27
RightUpLeg  -5.90412 -10.0394 -6.04448
RightLeg  22.1487 0.885198 0.0594915
RightFoot  -10.7655 -0.0986266 4.31407
RightToes  0.000482159 0.542163 -0.142577
Spine  11.9612 2.33227 -0.730914
Spine1  -0.64001 2.44576 -0.793379
HEad  -11.0659 -0.342695 1.63727
LeftShoulder1  1.78833 -3.2285 -20.0085
LeftArm  -25.0582 19.391 -18.504
LeftForeArm  20.9237 -9.97804 0.453711
LeftHand  -0.25398 0.0180481 5.50724
RightShoulder  1.55307 2.69932 18.5063
RightArm  -25.0152 -14.0209 12.5095
RightForeArm  -0.297258 9.79479 2.40679
RightHand  -1.54734 4.15998 -18.985
LeftUpLeg  -0.797512 6.66197 -0.563307
LeftLeg  11.2311 9.73941 -1.67505
LeftFoot  -12.7381 0.0560884 -1.66457
LeftToes  1.06245e-005 4.65855e-005 -8.18503e-006
50
root  -70.8163 40.822 -4.31874 11.5623 81.6303 11.6202
RightUpLeg  -9.66638 -7.30808 -6.11627
RightLeg  29.9152 -1.2922 -1.03146
RightFoot  -8.3832 -0.229677 6.59819
RightToes  0.000482159 0.542163 -0.142577
Spine  13.2834 2.65729 -0.474175
Spine1  -0.333213 2.97475 -1.99839
HEad  -11.9857 -0.0710856 1.97774
LeftShoulder1  1.96685 -3.4324 -21.9176
LeftArm  -25.2719 19.077 -18.9385
LeftForeArm  20.38 -10.4894 0.340108
LeftHand  -0.25398 0.0180481 5.50724
RightShoulder  1.86513 3.46763 20.3627
RightArm  -25.2193 -13.4959 13.633
RightForeArm  1.00828 10.2558 2.45149
RightHand  -1.52739 4.15949 -18.7498
LeftUpLeg  0.0883058 7.69829 -0.494242
LeftLeg  12.4802 10.5665 -1.52454
LeftFoot  -14.5016 0.0116318 -2.75629
LeftToes  1.06245e-005 4.65855e-005 -8.18503e-006
51
root  -70.6148 40.7139 -4.34209 10.1507 79.8478 10.6918
RightUpLeg  -13.7831 -6.51334 -6.13322
RightLeg  36.7776 -2.07306 -1.90748
RightFoot  -5.53321 -0.436582 7.91395
RightToes  0.000482159 0.542163 -0.142577
Spine  13.9581 2.70219 -0.253996
Spine1  0.220197 3.2221 -3.00942
HEad  -12.1745 0.497968 1.77757
LeftShoulder1  2.23202 -3.81192 -24.1858
LeftArm  -24.851 18.3527 -19.4506
LeftForeArm  20.0115 -10.3006 0.142007
LeftHand  -0.25398 0.0180481 5.50724
RightShoulder  2.18928 4.12237 22.4537
RightArm  -25.0031 -12.9421 15.0595
RightForeArm  1.54206 11.1131 2.71371
RightHand  -1.48695 3.78623 -18.9759
LeftUpLeg  0.881138 8.23562 -0.606506
LeftLeg  13.1387 11.7223 -1.33497
LeftFoot  -15.7411 -0.0373706 -3.43544
LeftToes  1.06245e-005 4.65855e-005 -8.18503e-006
52
root  -70.3096 40.6597 -4.34203 9.22662 78.6358 9.92861
RightUpLeg  -17.3468 -7.08154 -5.83752
RightLeg  40.7676 -1.92989 -2.05992
RightFoot  -3.99243 -0.528611 7.7998
RightToes  0.000482159 0.542163 -0.142577
Spine  14.0186 2.55755 -0.072537
Spine1  0.966702 3.19468 -3.42433
HEad  -11.7382 1.2436 1.11697
LeftShoulder1  2.65143 -4.51693 -26.8426
LeftArm  -24.0253 17.2358 -20.2698
LeftForeArm  19.828 -9.40605 -0.104675
LeftHand  -0.25398 0.0180481 5.50724
RightShoulder  2.47938 4.60959 24.4085
RightArm  -24.2865 -12.7889 16.7327
RightForeArm  1.62143 12.4172 3.14537
RightHand  -1.47752 3.50041 -19.4318
LeftUpLeg  1.74073 8.23726 -0.661101
LeftLeg  13.125 12.8738 -1.28775
LeftFoot  -16.6785 -0.0859137 -3.98564
LeftToes  1.06245e-005 4.65855e-005 -8.18503e-006
53
root  -69.9059 40.6462 -4.31885 7.72626 77.9056 8.29404
RightUpLeg  -20.0161 -8.50408 -5.05843
RightLeg  41.0117 -1.59675 -1.77383
RightFoot  -3.80415 -0.521937 7.51824
RightToes  0.000482159 0.542163 -0.142577
Spine  13.6647 2.27813 0.26296
Spine1  1.64055 2.96321 -3.38758
HEad  -11.2225 1.54029 0.634823
LeftShoulder1  3.23132 -5.51972 -29.6847
LeftArm  -22.9522 15.8862 -21.4878
LeftForeArm  19.8935 -7.97657 -0.413941
LeftHand  -0.25398 0.0180481 5.50724
RightShoulder  2.73814 4.99752 26.132
RightArm  -23.5783 -12.985 18.685
RightForeArm  2.14337 13.5408 3.44977
RightHand  -1.50222 3.52561 -19.6939
LeftUpLeg  2.64054 7.96123 -0.412459
LeftLeg  12.6287 13.7504 -1.46726
LeftFoot  -17.3533 -0.131631 -4.4883
LeftToes  1.06245e-005 4.65855e-005 -8.18503e-006
54
root  -69.4232 40.6247 -4.26421 5.79781 77.3963 6.09318
RightUpLeg  -21.8826 -10.1587 -3.95209
RightLeg  38.0482 -1.66472 -1.65989
RightFoot  -4.09314 -0.532828 7.96044
RightToes  0.000482159 0.542163 -0.142577
Spine  13.2731 1.89728 0.701657
Spine1  2.00573 2.59832 -3.25466
HEad  -10.6583 1.57468 0.418284
LeftShoulder1  3.88634 -6.58689 -32.4323
LeftArm  -21.7439 14.4275 -23.1086
LeftForeArm  20.3498 -6.52747 -0.808881
LeftHand  -0.25398 0.0180481 5.50724
RightShoulder  2.9631 5.30664 27.607
RightArm  -23.2317 -13.2667 21.1175
RightForeArm  2.74765 13.9413 3.55667
RightHand  -1.51834 3.52983 -19.8899
LeftUpLeg  3.46769 7.69658 0.0378313
LeftLeg  12.2013 14.4644 -1.66526
LeftFoot  -17.7568 -0.14763 -4.53343
LeftToes  1.06245e-005 4.65855e-005 -8.18503e-006
55
root  -68.8715 40.567 -4.16697 4.14756 76.9063 4.29898
RightUpLeg  -23.0678 -11.593 -2.78843
RightLeg  33.1231 -2.14575 -1.74865
RightFoot  -4.32453 -0.537673 8.27168
RightToes  0.000482159 0.542163 -0.142577
Spine  13.2331 1.4857 0.937794
Spine1  2.03438 2.15262 -3.02631
HEad  -9.74661 2.24841 0.0861745
LeftShoulder1  4.51647 -7.50237 -34.9425
LeftArm  -20.5733 12.8559 -25.0361
LeftForeArm  21.5793 -5.62794 -1.28641
LeftHand  -0.25398 0.0180481 5.50724
RightShoulder  3.1424 5.54047 28.7513
RightArm  -23.0915 -13.5945 24.1608
RightForeArm  2.8706 13.6558 3.58572
RightHand  -1.5113 3.34932 -20.1886
LeftUpLeg  4.43032 7.4977 0.43315
LeftLeg  11.9685 15.169 -1.76162
LeftFoot  -18.0694 -0.136486 -4.16422
LeftToes  1.06245e-005 4.65855e-005 -8.18503e-006
56
root  -68.255 40.4675 -4.01819 3.52155 76.3729 3.68584
RightUpLeg  -23.8192 -12.8552 -1.74949
RightLeg  27.4145 -2.56422 -1.672
RightFoot  -4.31706 -0.506856 7.7693
RightToes  0.000482159 0.542163 -0.142577
Spine  13.5147 1.13153 0.692152
Spine1  1.91356 1.66815 -2.50972
HEad  -8.73286 3.59405 -0.369455
LeftShoulder1  5.10157 -8.26396 -37.2038
LeftArm  -19.3044 11.0664 -27.0494
LeftForeArm  23.9294 -5.45269 -1.87541
LeftHand  -0.25398 0.0180481 5.50724
RightShoulder  3.28359 5.73776 29.5545
RightArm  -23.0074 -14.1065 27.6909
RightForeArm  3.18517 12.9937 3.57122
RightHand  -1.52688 3.33863 -20.4134
LeftUpLeg  5.64967 7.34678 0.609093
LeftLeg  11.7417 15.7099 -1.83979
LeftFoot  -18.5954 -0.149194 -4.10547
LeftToes  1.06245e-005 4.65855e-005 -8.18503e-006
57
root  -67.5701 40.314 -3.81616 4.25041 75.8326 4.38997
RightUpLeg  -24.5376 -14.3536 -0.849318
RightLeg  21.8445 -2.52352 -1.34745
RightFoot  -4.04569 -0.488048 7.21093
RightToes  0.000482159 0.542163 -0.142577
Spine  13.7531 0.837014 0.0304432
Spine1  1.85057 1.17774 -1.84436
HEad  -8.23647 4.64084 -0.649154
LeftShoulder1  5.67725 -8.99408 -39.1976
LeftArm  -17.5993 9.01005 -28.9302
LeftForeArm  27.4704 -5.89284 -2.63946
LeftHand  -0.25398 0.0180481 5.50724
RightShoulder  3.40427 5.91977 30.1596
RightArm  -22.8719 -14.8768 31.427
RightForeArm  4.1488 12.2154 3.52678
RightHand  -1.60383 3.65869 -20.6832
LeftUpLeg  6.88697 7.27364 0.530121
LeftLeg  11.6235 16.0931 -1.9178
LeftFoot  -19.3588 -0.197005 -4.4656
LeftToes  1.06245e-005 4.65855e-005 -8.18503e-006
